<svg width="330.518" height="81.983" viewBox="0 0 330.518 81.983" xmlns="http://www.w3.org/2000/svg"><g id="svgGroup" stroke-linecap="round" fill-rule="evenodd" font-size="9pt" stroke="#ffffff" stroke-width="0.25mm" fill="#ffffff" style="stroke:#ffffff;stroke-width:0.25mm;fill:#ffffff"><path d="M 149.121 81.006 L 149.121 0.049 L 163.574 0.049 L 163.574 27.783 A 42.348 42.348 0 0 1 170.644 24.733 A 50.312 50.312 0 0 1 173.706 23.828 A 45.847 45.847 0 0 1 184.635 22.37 A 51.217 51.217 0 0 1 185.449 22.363 A 41.589 41.589 0 0 1 192.518 22.939 A 32.527 32.527 0 0 1 198.267 24.463 A 27.646 27.646 0 0 1 205.128 28.111 A 24.775 24.775 0 0 1 207.91 30.493 Q 211.865 34.424 213.989 40.039 A 32.503 32.503 0 0 1 215.815 47.611 A 41.716 41.716 0 0 1 216.113 52.686 L 216.113 81.006 L 201.709 81.006 L 201.709 53.271 A 22.177 22.177 0 0 0 201.244 48.65 A 18.614 18.614 0 0 0 200.391 45.776 A 16.042 16.042 0 0 0 196.533 39.941 Q 193.994 37.5 190.356 36.157 A 21.335 21.335 0 0 0 185.701 35.036 A 27.753 27.753 0 0 0 182.129 34.814 A 30.515 30.515 0 0 0 174.911 35.645 A 27.052 27.052 0 0 0 171.875 36.572 A 34.992 34.992 0 0 0 166.538 39.059 A 29.127 29.127 0 0 0 163.574 41.016 L 163.574 81.006 L 149.121 81.006 Z M 232.275 53.516 L 232.275 23.34 L 246.68 23.34 L 246.68 51.465 A 31.645 31.645 0 0 0 246.943 55.632 A 24.859 24.859 0 0 0 247.559 58.765 A 13.932 13.932 0 0 0 249.302 62.764 A 12.698 12.698 0 0 0 250.562 64.404 A 12.602 12.602 0 0 0 253.764 66.921 A 16.801 16.801 0 0 0 256.226 68.042 A 19.146 19.146 0 0 0 259.388 68.88 Q 260.963 69.165 262.777 69.272 A 38.477 38.477 0 0 0 265.039 69.336 Q 267.529 69.336 270.093 68.799 Q 272.656 68.262 275 67.31 A 25.786 25.786 0 0 0 279.37 65.039 A 20.175 20.175 0 0 0 281.684 63.296 A 16.857 16.857 0 0 0 282.861 62.158 L 282.861 23.34 L 297.314 23.34 L 297.314 81.006 L 282.861 81.006 L 282.861 76.074 A 42.868 42.868 0 0 1 276.022 79.399 A 36.417 36.417 0 0 1 272.168 80.615 A 45.075 45.075 0 0 1 265.979 81.757 A 36.745 36.745 0 0 1 261.963 81.982 Q 255.3 81.982 250.248 80.631 A 29.807 29.807 0 0 1 248.413 80.078 A 26.213 26.213 0 0 1 243.286 77.74 A 20.692 20.692 0 0 1 239.185 74.536 A 21.316 21.316 0 0 1 234.441 67.058 A 25.422 25.422 0 0 1 233.936 65.601 A 35.083 35.083 0 0 1 232.64 59.551 A 47.643 47.643 0 0 1 232.275 53.516 Z M 0 81.006 L 35.84 4.688 L 52.246 4.688 L 89.16 81.006 L 72.9 81.006 L 66.797 68.164 L 22.217 68.164 L 16.309 81.006 L 0 81.006 Z M 107.91 81.006 L 107.91 34.229 L 93.994 34.229 L 93.994 23.389 L 107.91 23.389 L 107.91 5.469 L 122.363 5.469 L 122.363 23.389 L 136.279 23.389 L 136.279 34.229 L 122.363 34.229 L 122.363 81.006 L 107.91 81.006 Z M 316.064 81.006 L 316.064 0 L 330.518 0 L 330.518 81.006 L 316.064 81.006 Z M 28.125 55.42 L 60.693 55.42 L 44.189 20.752 L 28.125 55.42 Z" vector-effect="non-scaling-stroke"/></g></svg>